;PTH Drill file created by EasyEDA 
M48
INCH,LZ
;Holesize 1 = 0.020 INCH
T01C0.020
;Holesize 2 = 0.028 INCH
T02C0.028
;Holesize 3 = 0.036 INCH
T03C0.036
;Holesize 4 = 0.086 INCH
T04C0.086
%
G05
G90
T01
X001000Y012000
X010400Y012000
T02
X004900Y007600
X004900Y008600
X004900Y009600
X004900Y010600
X001900Y010600
X001900Y009600
X001900Y008600
X001900Y007600
T03
X004700Y005500
X005700Y005500
X006700Y005500
X007700Y005500
X008700Y005500
X008700Y000500
X007700Y000500
X006700Y000500
X005700Y000500
X004700Y000500
T04
X010300Y005100
X010300Y000900
X003500Y005100
X003500Y000900
M30
