G04 ---------------------------- Layer name :BOTTOM SILK LAYER*
G04 EasyEDA v5.3.14, Mon, 30 Apr 2018 16:42:48 GMT*
G04 Gerber Generator version 0.2*
G04 Scale: 100 percent, Rotated: No, Reflected: No *
G04 Dimensions in inches *
G04 leading zeros omitted , absolute positions ,2 integer and 4 decimal *
%FSLAX24Y24*%
%MOIN*%
G90*
G70D02*

%ADD16C,0.006000*%

%LPD*%
G54D16*
G01X7700Y3663D02*
G01X7700Y3377D01*
G01X7700Y3663D02*
G01X7590Y3377D01*
G01X7481Y3663D02*
G01X7590Y3377D01*
G01X7481Y3663D02*
G01X7481Y3377D01*
G01X7228Y3568D02*
G01X7228Y3377D01*
G01X7228Y3527D02*
G01X7255Y3554D01*
G01X7282Y3568D01*
G01X7323Y3568D01*
G01X7350Y3554D01*
G01X7378Y3527D01*
G01X7391Y3486D01*
G01X7391Y3459D01*
G01X7378Y3418D01*
G01X7350Y3390D01*
G01X7323Y3377D01*
G01X7282Y3377D01*
G01X7255Y3390D01*
G01X7228Y3418D01*
G01X6974Y3568D02*
G01X6974Y3350D01*
G01X6988Y3309D01*
G01X7001Y3295D01*
G01X7029Y3281D01*
G01X7070Y3281D01*
G01X7097Y3295D01*
G01X6974Y3527D02*
G01X7001Y3554D01*
G01X7029Y3568D01*
G01X7070Y3568D01*
G01X7097Y3554D01*
G01X7124Y3527D01*
G01X7138Y3486D01*
G01X7138Y3459D01*
G01X7124Y3418D01*
G01X7097Y3390D01*
G01X7070Y3377D01*
G01X7029Y3377D01*
G01X7001Y3390D01*
G01X6974Y3418D01*
G01X6734Y3527D02*
G01X6748Y3554D01*
G01X6789Y3568D01*
G01X6830Y3568D01*
G01X6870Y3554D01*
G01X6884Y3527D01*
G01X6870Y3500D01*
G01X6843Y3486D01*
G01X6775Y3472D01*
G01X6748Y3459D01*
G01X6734Y3431D01*
G01X6734Y3418D01*
G01X6748Y3390D01*
G01X6789Y3377D01*
G01X6830Y3377D01*
G01X6870Y3390D01*
G01X6884Y3418D01*
G01X6644Y3568D02*
G01X6644Y3281D01*
G01X6644Y3527D02*
G01X6617Y3554D01*
G01X6590Y3568D01*
G01X6549Y3568D01*
G01X6521Y3554D01*
G01X6494Y3527D01*
G01X6480Y3486D01*
G01X6480Y3459D01*
G01X6494Y3418D01*
G01X6521Y3390D01*
G01X6549Y3377D01*
G01X6590Y3377D01*
G01X6617Y3390D01*
G01X6644Y3418D01*
G01X6322Y3568D02*
G01X6350Y3554D01*
G01X6377Y3527D01*
G01X6390Y3486D01*
G01X6390Y3459D01*
G01X6377Y3418D01*
G01X6350Y3390D01*
G01X6322Y3377D01*
G01X6281Y3377D01*
G01X6254Y3390D01*
G01X6227Y3418D01*
G01X6213Y3459D01*
G01X6213Y3486D01*
G01X6227Y3527D01*
G01X6254Y3554D01*
G01X6281Y3568D01*
G01X6322Y3568D01*
G01X6055Y3568D02*
G01X6082Y3554D01*
G01X6110Y3527D01*
G01X6123Y3486D01*
G01X6123Y3459D01*
G01X6110Y3418D01*
G01X6082Y3390D01*
G01X6055Y3377D01*
G01X6014Y3377D01*
G01X5987Y3390D01*
G01X5960Y3418D01*
G01X5946Y3459D01*
G01X5946Y3486D01*
G01X5960Y3527D01*
G01X5987Y3554D01*
G01X6014Y3568D01*
G01X6055Y3568D01*
G01X5747Y3663D02*
G01X5774Y3663D01*
G01X5801Y3649D01*
G01X5815Y3609D01*
G01X5815Y3377D01*
G01X5856Y3568D02*
G01X5760Y3568D01*
M00*
M02*
