G04 ---------------------------- Layer name :TOP LAYER*
G04 EasyEDA v5.3.14, Mon, 30 Apr 2018 16:42:48 GMT*
G04 Gerber Generator version 0.2*
G04 Scale: 100 percent, Rotated: No, Reflected: No *
G04 Dimensions in inches *
G04 leading zeros omitted , absolute positions ,2 integer and 4 decimal *
%FSLAX24Y24*%
%MOIN*%
G90*
G70D02*

%ADD10C,0.010000*%
%ADD11C,0.118000*%
%ADD12C,0.060000*%
%ADD13R,0.055000X0.055000*%
%ADD14C,0.055000*%
%ADD15R,0.060000X0.060000*%

%LPD*%
G36*
G01X0Y0D02*
G01X0Y13600D01*
G01X11800Y13600D01*
G01X11800Y0D01*
G01X0Y0D01*
G37*

%LPC*%
G36*
G01X6730Y5101D02*
G01X6846Y5128D01*
G01X6950Y5188D01*
G01X7030Y5273D01*
G01X7081Y5382D01*
G01X7100Y5500D01*
G01X7081Y5617D01*
G01X7030Y5726D01*
G01X6950Y5811D01*
G01X6846Y5871D01*
G01X6730Y5898D01*
G01X6610Y5890D01*
G01X6500Y5846D01*
G01X6406Y5771D01*
G01X6339Y5673D01*
G01X6303Y5559D01*
G01X6303Y5440D01*
G01X6339Y5326D01*
G01X6406Y5228D01*
G01X6500Y5153D01*
G01X6610Y5109D01*
G01X6730Y5101D01*
G37*
G36*
G01X5730Y101D02*
G01X5846Y128D01*
G01X5950Y188D01*
G01X6030Y273D01*
G01X6081Y382D01*
G01X6100Y500D01*
G01X6081Y617D01*
G01X6030Y726D01*
G01X5950Y811D01*
G01X5850Y869D01*
G01X5850Y2300D01*
G01X5847Y2323D01*
G01X5842Y2346D01*
G01X5834Y2367D01*
G01X5822Y2388D01*
G01X5806Y2405D01*
G01X5606Y2605D01*
G01X5588Y2621D01*
G01X5568Y2634D01*
G01X5546Y2642D01*
G01X5523Y2648D01*
G01X5500Y2650D01*
G01X761Y2650D01*
G01X450Y2961D01*
G01X450Y8938D01*
G01X1765Y10253D01*
G01X1784Y10244D01*
G01X1900Y10226D01*
G01X2015Y10244D01*
G01X2119Y10298D01*
G01X2201Y10380D01*
G01X2255Y10484D01*
G01X2265Y10550D01*
G01X2738Y10550D01*
G01X2850Y10438D01*
G01X2850Y7761D01*
G01X2838Y7750D01*
G01X2238Y7750D01*
G01X2201Y7819D01*
G01X2119Y7901D01*
G01X2015Y7955D01*
G01X1900Y7973D01*
G01X1784Y7955D01*
G01X1680Y7901D01*
G01X1598Y7819D01*
G01X1544Y7715D01*
G01X1526Y7600D01*
G01X1544Y7484D01*
G01X1598Y7380D01*
G01X1680Y7298D01*
G01X1784Y7244D01*
G01X1900Y7226D01*
G01X2015Y7244D01*
G01X2119Y7298D01*
G01X2201Y7380D01*
G01X2238Y7450D01*
G01X2900Y7450D01*
G01X2923Y7451D01*
G01X2946Y7457D01*
G01X2967Y7465D01*
G01X2988Y7478D01*
G01X3005Y7494D01*
G01X3105Y7594D01*
G01X3121Y7611D01*
G01X3134Y7632D01*
G01X3142Y7653D01*
G01X3148Y7676D01*
G01X3150Y7700D01*
G01X3150Y10500D01*
G01X3148Y10523D01*
G01X3142Y10546D01*
G01X3134Y10567D01*
G01X3121Y10588D01*
G01X3105Y10605D01*
G01X2905Y10805D01*
G01X2888Y10821D01*
G01X2867Y10834D01*
G01X2846Y10842D01*
G01X2823Y10848D01*
G01X2800Y10850D01*
G01X2171Y10850D01*
G01X2119Y10901D01*
G01X2015Y10955D01*
G01X1900Y10973D01*
G01X1784Y10955D01*
G01X1680Y10901D01*
G01X1598Y10819D01*
G01X1544Y10715D01*
G01X1526Y10600D01*
G01X1544Y10484D01*
G01X1553Y10465D01*
G01X194Y9105D01*
G01X178Y9088D01*
G01X165Y9067D01*
G01X157Y9046D01*
G01X151Y9023D01*
G01X150Y9000D01*
G01X150Y2900D01*
G01X151Y2876D01*
G01X157Y2853D01*
G01X165Y2832D01*
G01X178Y2811D01*
G01X194Y2794D01*
G01X594Y2394D01*
G01X611Y2378D01*
G01X632Y2365D01*
G01X653Y2357D01*
G01X676Y2351D01*
G01X700Y2350D01*
G01X5438Y2350D01*
G01X5550Y2238D01*
G01X5550Y865D01*
G01X5500Y846D01*
G01X5406Y771D01*
G01X5339Y673D01*
G01X5303Y559D01*
G01X5303Y440D01*
G01X5339Y326D01*
G01X5406Y228D01*
G01X5500Y153D01*
G01X5610Y109D01*
G01X5730Y101D01*
G37*
G36*
G01X6730Y101D02*
G01X6846Y128D01*
G01X6950Y188D01*
G01X7030Y273D01*
G01X7081Y382D01*
G01X7100Y500D01*
G01X7081Y617D01*
G01X7030Y726D01*
G01X6950Y811D01*
G01X6846Y871D01*
G01X6730Y898D01*
G01X6610Y890D01*
G01X6500Y846D01*
G01X6406Y771D01*
G01X6339Y673D01*
G01X6303Y559D01*
G01X6303Y440D01*
G01X6339Y326D01*
G01X6406Y228D01*
G01X6500Y153D01*
G01X6610Y109D01*
G01X6730Y101D01*
G37*
G36*
G01X7730Y101D02*
G01X7846Y128D01*
G01X7950Y188D01*
G01X8030Y273D01*
G01X8081Y382D01*
G01X8100Y500D01*
G01X8081Y617D01*
G01X8030Y726D01*
G01X7950Y811D01*
G01X7846Y871D01*
G01X7730Y898D01*
G01X7610Y890D01*
G01X7500Y846D01*
G01X7406Y771D01*
G01X7339Y673D01*
G01X7303Y559D01*
G01X7303Y440D01*
G01X7339Y326D01*
G01X7406Y228D01*
G01X7500Y153D01*
G01X7610Y109D01*
G01X7730Y101D01*
G37*
G36*
G01X8730Y101D02*
G01X8846Y128D01*
G01X8950Y188D01*
G01X9030Y273D01*
G01X9081Y382D01*
G01X9100Y500D01*
G01X9081Y617D01*
G01X9030Y726D01*
G01X8950Y811D01*
G01X8846Y871D01*
G01X8730Y898D01*
G01X8610Y890D01*
G01X8500Y846D01*
G01X8406Y771D01*
G01X8339Y673D01*
G01X8303Y559D01*
G01X8303Y440D01*
G01X8339Y326D01*
G01X8406Y228D01*
G01X8500Y153D01*
G01X8610Y109D01*
G01X8730Y101D01*
G37*
G36*
G01X3500Y209D02*
G01X3653Y228D01*
G01X3800Y278D01*
G01X3930Y359D01*
G01X4040Y469D01*
G01X4121Y600D01*
G01X4171Y746D01*
G01X4190Y900D01*
G01X4171Y1053D01*
G01X4121Y1200D01*
G01X4040Y1330D01*
G01X3930Y1440D01*
G01X3800Y1521D01*
G01X3653Y1571D01*
G01X3500Y1590D01*
G01X3346Y1571D01*
G01X3200Y1521D01*
G01X3069Y1440D01*
G01X2959Y1330D01*
G01X2878Y1200D01*
G01X2828Y1053D01*
G01X2809Y900D01*
G01X2828Y746D01*
G01X2878Y600D01*
G01X2959Y469D01*
G01X3069Y359D01*
G01X3200Y278D01*
G01X3346Y228D01*
G01X3500Y209D01*
G37*
G36*
G01X10300Y209D02*
G01X10453Y228D01*
G01X10600Y278D01*
G01X10730Y359D01*
G01X10839Y469D01*
G01X10922Y600D01*
G01X10972Y746D01*
G01X10989Y900D01*
G01X10972Y1053D01*
G01X10922Y1200D01*
G01X10839Y1330D01*
G01X10730Y1440D01*
G01X10600Y1521D01*
G01X10453Y1571D01*
G01X10300Y1590D01*
G01X10146Y1571D01*
G01X10000Y1521D01*
G01X9869Y1440D01*
G01X9760Y1330D01*
G01X9677Y1200D01*
G01X9627Y1053D01*
G01X9610Y900D01*
G01X9627Y746D01*
G01X9677Y600D01*
G01X9760Y469D01*
G01X9869Y359D01*
G01X10000Y278D01*
G01X10146Y228D01*
G01X10300Y209D01*
G37*
G36*
G01X1100Y3350D02*
G01X6700Y3350D01*
G01X6723Y3351D01*
G01X6746Y3357D01*
G01X6768Y3365D01*
G01X6788Y3378D01*
G01X6806Y3394D01*
G01X7806Y4394D01*
G01X7822Y4411D01*
G01X7834Y4432D01*
G01X7842Y4453D01*
G01X7847Y4476D01*
G01X7850Y4500D01*
G01X7850Y5130D01*
G01X7950Y5188D01*
G01X8030Y5273D01*
G01X8081Y5382D01*
G01X8100Y5500D01*
G01X8081Y5617D01*
G01X8030Y5726D01*
G01X7950Y5811D01*
G01X7846Y5871D01*
G01X7730Y5898D01*
G01X7610Y5890D01*
G01X7500Y5846D01*
G01X7406Y5771D01*
G01X7339Y5673D01*
G01X7303Y5559D01*
G01X7303Y5440D01*
G01X7339Y5326D01*
G01X7406Y5228D01*
G01X7500Y5153D01*
G01X7550Y5134D01*
G01X7550Y4561D01*
G01X6638Y3650D01*
G01X1173Y3650D01*
G01X950Y3950D01*
G01X950Y8630D01*
G01X1732Y9269D01*
G01X1784Y9244D01*
G01X1900Y9226D01*
G01X2015Y9244D01*
G01X2119Y9298D01*
G01X2201Y9380D01*
G01X2255Y9484D01*
G01X2273Y9600D01*
G01X2255Y9715D01*
G01X2201Y9819D01*
G01X2119Y9901D01*
G01X2015Y9955D01*
G01X1900Y9973D01*
G01X1784Y9955D01*
G01X1680Y9901D01*
G01X1598Y9819D01*
G01X1544Y9715D01*
G01X1526Y9600D01*
G01X1542Y9500D01*
G01X705Y8815D01*
G01X686Y8798D01*
G01X669Y8776D01*
G01X659Y8751D01*
G01X651Y8726D01*
G01X650Y8700D01*
G01X650Y3900D01*
G01X651Y3880D01*
G01X653Y3861D01*
G01X669Y3826D01*
G01X680Y3809D01*
G01X980Y3409D01*
G01X998Y3390D01*
G01X1019Y3371D01*
G01X1046Y3359D01*
G01X1071Y3351D01*
G01X1100Y3350D01*
G37*
G36*
G01X4900Y10226D02*
G01X5015Y10244D01*
G01X5119Y10298D01*
G01X5202Y10380D01*
G01X5256Y10484D01*
G01X5273Y10600D01*
G01X5256Y10715D01*
G01X5202Y10819D01*
G01X5119Y10901D01*
G01X5015Y10955D01*
G01X4900Y10973D01*
G01X4784Y10955D01*
G01X4680Y10901D01*
G01X4598Y10819D01*
G01X4561Y10750D01*
G01X3561Y10750D01*
G01X2205Y12105D01*
G01X2188Y12121D01*
G01X2167Y12134D01*
G01X2146Y12142D01*
G01X2123Y12148D01*
G01X2100Y12150D01*
G01X1400Y12150D01*
G01X1400Y12300D01*
G01X1396Y12330D01*
G01X1380Y12357D01*
G01X1357Y12380D01*
G01X1330Y12396D01*
G01X1300Y12400D01*
G01X700Y12400D01*
G01X669Y12396D01*
G01X642Y12380D01*
G01X619Y12357D01*
G01X603Y12330D01*
G01X600Y12300D01*
G01X600Y11700D01*
G01X603Y11669D01*
G01X619Y11642D01*
G01X642Y11619D01*
G01X669Y11603D01*
G01X700Y11600D01*
G01X1300Y11600D01*
G01X1330Y11603D01*
G01X1357Y11619D01*
G01X1380Y11642D01*
G01X1396Y11669D01*
G01X1400Y11700D01*
G01X1400Y11850D01*
G01X2038Y11850D01*
G01X3394Y10494D01*
G01X3411Y10478D01*
G01X3432Y10465D01*
G01X3453Y10457D01*
G01X3476Y10451D01*
G01X3500Y10450D01*
G01X4561Y10450D01*
G01X4598Y10380D01*
G01X4680Y10298D01*
G01X4784Y10244D01*
G01X4900Y10226D01*
G37*
G36*
G01X1500Y3950D02*
G01X4900Y3950D01*
G01X4923Y3951D01*
G01X4946Y3957D01*
G01X4968Y3965D01*
G01X4988Y3978D01*
G01X5006Y3994D01*
G01X5806Y4794D01*
G01X5822Y4811D01*
G01X5834Y4832D01*
G01X5842Y4853D01*
G01X5847Y4876D01*
G01X5850Y4900D01*
G01X5850Y5130D01*
G01X5950Y5188D01*
G01X6030Y5273D01*
G01X6081Y5382D01*
G01X6100Y5500D01*
G01X6081Y5617D01*
G01X6030Y5726D01*
G01X5950Y5811D01*
G01X5846Y5871D01*
G01X5730Y5898D01*
G01X5610Y5890D01*
G01X5500Y5846D01*
G01X5406Y5771D01*
G01X5339Y5673D01*
G01X5303Y5559D01*
G01X5303Y5440D01*
G01X5339Y5326D01*
G01X5406Y5228D01*
G01X5500Y5153D01*
G01X5550Y5134D01*
G01X5550Y4961D01*
G01X4838Y4250D01*
G01X1580Y4250D01*
G01X1450Y4444D01*
G01X1450Y8028D01*
G01X1738Y8267D01*
G01X1784Y8244D01*
G01X1900Y8226D01*
G01X2015Y8244D01*
G01X2119Y8298D01*
G01X2201Y8380D01*
G01X2255Y8484D01*
G01X2273Y8600D01*
G01X2255Y8715D01*
G01X2201Y8819D01*
G01X2119Y8901D01*
G01X2015Y8955D01*
G01X1900Y8973D01*
G01X1784Y8955D01*
G01X1680Y8901D01*
G01X1598Y8819D01*
G01X1544Y8715D01*
G01X1526Y8600D01*
G01X1542Y8498D01*
G01X1203Y8215D01*
G01X1186Y8196D01*
G01X1169Y8176D01*
G01X1159Y8151D01*
G01X1151Y8126D01*
G01X1150Y8100D01*
G01X1150Y4400D01*
G01X1151Y4382D01*
G01X1153Y4365D01*
G01X1159Y4348D01*
G01X1165Y4332D01*
G01X1176Y4315D01*
G01X1376Y4015D01*
G01X1394Y3994D01*
G01X1415Y3976D01*
G01X1442Y3961D01*
G01X1469Y3951D01*
G01X1500Y3950D01*
G37*
G36*
G01X4626Y7223D02*
G01X5176Y7223D01*
G01X5206Y7228D01*
G01X5234Y7244D01*
G01X5256Y7265D01*
G01X5272Y7294D01*
G01X5276Y7323D01*
G01X5276Y7450D01*
G01X5500Y7450D01*
G01X5546Y7457D01*
G01X5588Y7478D01*
G01X5622Y7511D01*
G01X5642Y7553D01*
G01X5650Y7600D01*
G01X5650Y10738D01*
G01X6161Y11250D01*
G01X9800Y11250D01*
G01X9823Y11251D01*
G01X9846Y11257D01*
G01X9868Y11265D01*
G01X9888Y11278D01*
G01X9906Y11294D01*
G01X10211Y11600D01*
G01X10700Y11600D01*
G01X10730Y11603D01*
G01X10757Y11619D01*
G01X10780Y11642D01*
G01X10796Y11669D01*
G01X10800Y11700D01*
G01X10800Y12300D01*
G01X10796Y12330D01*
G01X10780Y12357D01*
G01X10757Y12380D01*
G01X10730Y12396D01*
G01X10700Y12400D01*
G01X10100Y12400D01*
G01X10069Y12396D01*
G01X10042Y12380D01*
G01X10019Y12357D01*
G01X10003Y12330D01*
G01X10000Y12300D01*
G01X10000Y11811D01*
G01X9738Y11550D01*
G01X6100Y11550D01*
G01X6076Y11548D01*
G01X6053Y11542D01*
G01X6031Y11534D01*
G01X6011Y11521D01*
G01X5993Y11505D01*
G01X5393Y10905D01*
G01X5377Y10888D01*
G01X5365Y10867D01*
G01X5357Y10846D01*
G01X5352Y10823D01*
G01X5350Y10800D01*
G01X5350Y7750D01*
G01X5276Y7750D01*
G01X5276Y7873D01*
G01X5272Y7903D01*
G01X5256Y7932D01*
G01X5234Y7953D01*
G01X5206Y7969D01*
G01X5176Y7973D01*
G01X4626Y7973D01*
G01X4596Y7969D01*
G01X4567Y7953D01*
G01X4546Y7932D01*
G01X4530Y7903D01*
G01X4526Y7873D01*
G01X4526Y7323D01*
G01X4530Y7294D01*
G01X4546Y7265D01*
G01X4567Y7244D01*
G01X4596Y7228D01*
G01X4626Y7223D01*
G37*
G36*
G01X3500Y4409D02*
G01X3653Y4428D01*
G01X3800Y4478D01*
G01X3930Y4559D01*
G01X4040Y4669D01*
G01X4121Y4800D01*
G01X4171Y4946D01*
G01X4190Y5100D01*
G01X4171Y5253D01*
G01X4121Y5400D01*
G01X4040Y5530D01*
G01X3930Y5640D01*
G01X3800Y5721D01*
G01X3653Y5771D01*
G01X3500Y5790D01*
G01X3346Y5771D01*
G01X3200Y5721D01*
G01X3069Y5640D01*
G01X2959Y5530D01*
G01X2878Y5400D01*
G01X2828Y5253D01*
G01X2809Y5100D01*
G01X2828Y4946D01*
G01X2878Y4800D01*
G01X2959Y4669D01*
G01X3069Y4559D01*
G01X3200Y4478D01*
G01X3346Y4428D01*
G01X3500Y4409D01*
G37*
G36*
G01X10300Y4409D02*
G01X10453Y4428D01*
G01X10600Y4478D01*
G01X10730Y4559D01*
G01X10839Y4669D01*
G01X10922Y4800D01*
G01X10972Y4946D01*
G01X10989Y5100D01*
G01X10972Y5253D01*
G01X10922Y5400D01*
G01X10839Y5530D01*
G01X10730Y5640D01*
G01X10600Y5721D01*
G01X10453Y5771D01*
G01X10300Y5790D01*
G01X10146Y5771D01*
G01X10000Y5721D01*
G01X9869Y5640D01*
G01X9760Y5530D01*
G01X9677Y5400D01*
G01X9627Y5253D01*
G01X9610Y5100D01*
G01X9627Y4946D01*
G01X9677Y4800D01*
G01X9760Y4669D01*
G01X9869Y4559D01*
G01X10000Y4478D01*
G01X10146Y4428D01*
G01X10300Y4409D01*
G37*
G36*
G01X8730Y5101D02*
G01X8846Y5128D01*
G01X8950Y5188D01*
G01X9030Y5273D01*
G01X9081Y5382D01*
G01X9100Y5500D01*
G01X9081Y5617D01*
G01X9030Y5726D01*
G01X8950Y5811D01*
G01X8846Y5871D01*
G01X8730Y5898D01*
G01X8610Y5890D01*
G01X8500Y5846D01*
G01X8406Y5771D01*
G01X8339Y5673D01*
G01X8303Y5559D01*
G01X8303Y5440D01*
G01X8339Y5326D01*
G01X8406Y5228D01*
G01X8500Y5153D01*
G01X8610Y5109D01*
G01X8730Y5101D01*
G37*
G36*
G01X4730Y101D02*
G01X4846Y128D01*
G01X4950Y188D01*
G01X5030Y273D01*
G01X5081Y382D01*
G01X5100Y500D01*
G01X5081Y617D01*
G01X5030Y726D01*
G01X4950Y811D01*
G01X4846Y871D01*
G01X4730Y898D01*
G01X4610Y890D01*
G01X4500Y846D01*
G01X4405Y771D01*
G01X4340Y673D01*
G01X4303Y559D01*
G01X4303Y440D01*
G01X4340Y326D01*
G01X4405Y228D01*
G01X4500Y153D01*
G01X4610Y109D01*
G01X4730Y101D01*
G37*
G36*
G01X4730Y5101D02*
G01X4846Y5128D01*
G01X4950Y5188D01*
G01X5030Y5273D01*
G01X5081Y5382D01*
G01X5100Y5500D01*
G01X5081Y5617D01*
G01X5030Y5726D01*
G01X4950Y5811D01*
G01X4850Y5869D01*
G01X4850Y6100D01*
G01X4847Y6123D01*
G01X4842Y6146D01*
G01X4834Y6167D01*
G01X4822Y6188D01*
G01X4806Y6205D01*
G01X4150Y6861D01*
G01X4150Y8050D01*
G01X4500Y8050D01*
G01X4523Y8051D01*
G01X4546Y8057D01*
G01X4567Y8065D01*
G01X4588Y8078D01*
G01X4606Y8094D01*
G01X4765Y8253D01*
G01X4784Y8244D01*
G01X4900Y8226D01*
G01X5015Y8244D01*
G01X5119Y8298D01*
G01X5202Y8380D01*
G01X5256Y8484D01*
G01X5273Y8600D01*
G01X5256Y8715D01*
G01X5202Y8819D01*
G01X5119Y8901D01*
G01X5050Y8938D01*
G01X5050Y9261D01*
G01X5119Y9298D01*
G01X5202Y9380D01*
G01X5256Y9484D01*
G01X5273Y9600D01*
G01X5256Y9715D01*
G01X5202Y9819D01*
G01X5119Y9901D01*
G01X5015Y9955D01*
G01X4900Y9973D01*
G01X4784Y9955D01*
G01X4680Y9901D01*
G01X4598Y9819D01*
G01X4544Y9715D01*
G01X4526Y9600D01*
G01X4544Y9484D01*
G01X4598Y9380D01*
G01X4680Y9298D01*
G01X4750Y9261D01*
G01X4750Y8938D01*
G01X4680Y8901D01*
G01X4598Y8819D01*
G01X4544Y8715D01*
G01X4526Y8600D01*
G01X4544Y8484D01*
G01X4553Y8465D01*
G01X4438Y8350D01*
G01X4000Y8350D01*
G01X3953Y8342D01*
G01X3911Y8321D01*
G01X3878Y8288D01*
G01X3857Y8246D01*
G01X3850Y8200D01*
G01X3850Y6800D01*
G01X3851Y6776D01*
G01X3857Y6753D01*
G01X3865Y6732D01*
G01X3878Y6711D01*
G01X3894Y6694D01*
G01X4550Y6038D01*
G01X4550Y5865D01*
G01X4500Y5846D01*
G01X4405Y5771D01*
G01X4340Y5673D01*
G01X4303Y5559D01*
G01X4303Y5440D01*
G01X4340Y5326D01*
G01X4405Y5228D01*
G01X4500Y5153D01*
G01X4610Y5109D01*
G01X4730Y5101D01*
G37*

%LPD*%
G54D10*
G01X5700Y500D02*
G01X5700Y2300D01*
G01X5500Y2500D01*
G01X700Y2500D01*
G01X300Y2900D01*
G01X300Y9000D01*
G01X1900Y10600D01*
G01X4900Y10600D02*
G01X3500Y10600D01*
G01X2100Y12000D01*
G01X1200Y12000D01*
G01X1000Y12000D01*
G01X4900Y7600D02*
G01X5500Y7600D01*
G01X5500Y8200D01*
G01X5500Y10800D01*
G01X6100Y11400D01*
G01X9800Y11400D01*
G01X10400Y12000D01*
G01X4900Y9600D02*
G01X4900Y8600D01*
G01X1900Y7600D02*
G01X2900Y7600D01*
G01X3000Y7700D01*
G01X3000Y10500D01*
G01X2800Y10700D01*
G01X2000Y10700D01*
G01X1900Y10600D01*
G01X4700Y5500D02*
G01X4700Y6100D01*
G01X4000Y6800D01*
G01X4000Y8200D01*
G01X4500Y8200D01*
G01X4900Y8600D01*
G01X5700Y5500D02*
G01X5700Y4900D01*
G01X4900Y4100D01*
G01X1500Y4100D01*
G01X1300Y4400D01*
G01X1300Y8100D01*
G01X1900Y8600D01*
G01X7700Y5500D02*
G01X7700Y4500D01*
G01X6700Y3500D01*
G01X1100Y3500D01*
G01X800Y3900D01*
G01X800Y8700D01*
G01X1900Y9600D01*
G54D12*
G01X4700Y5500D03*
G01X5700Y5500D03*
G01X6700Y5500D03*
G01X7700Y5500D03*
G01X8700Y5500D03*
G01X8700Y500D03*
G01X7700Y500D03*
G01X6700Y500D03*
G01X5700Y500D03*
G01X4700Y500D03*
G54D13*
G01X4900Y7600D03*
G54D14*
G01X4900Y8600D03*
G01X4900Y9600D03*
G01X4900Y10600D03*
G01X1900Y10600D03*
G01X1900Y9600D03*
G01X1900Y8600D03*
G01X1900Y7600D03*
G54D15*
G01X1000Y12000D03*
G01X10400Y12000D03*
G54D11*
G01X10300Y5100D03*
G01X10300Y900D03*
G01X3500Y5100D03*
G01X3500Y900D03*
M00*
M02*
